Coordinates
version=1
nRows=9
nColumns=40
inDegrees=yes

Units are S.I. units (second, meters, Newtons, ...)
If the header above contains a line with 'inDegrees', this indicates whether rotational values are in degrees (yes) or radians (no).

endheader
time	pelvis_tilt	pelvis_list	pelvis_rotation	pelvis_tx	pelvis_ty	pelvis_tz	hip_flexion_r	hip_adduction_r	hip_rotation_r	knee_angle_r	knee_angle_r_beta	ankle_angle_r	subtalar_angle_r	mtp_angle_r	hip_flexion_l	hip_adduction_l	hip_rotation_l	knee_angle_l	knee_angle_l_beta	ankle_angle_l	subtalar_angle_l	mtp_angle_l	lumbar_extension	lumbar_bending	lumbar_rotation	arm_flex_r	arm_add_r	arm_rot_r	elbow_flex_r	pro_sup_r	wrist_flex_r	wrist_dev_r	arm_flex_l	arm_add_l	arm_rot_l	elbow_flex_l	pro_sup_l	wrist_flex_l	wrist_dev_l
      8.36500000000000021316	     33.11848064657813495160	      1.05625243460570539256	   -175.13577495694073604682	      0.39035773065497481049	      0.77746560486512361621	     -0.55904038212551898646	     90.32152144768951984588	    -17.93833634790840392270	     -3.13814007449662080163	     69.31338076811769610686	      1.20974671009217016326	     12.38564465087590882320	      0.00000000000000000000	      0.00000000000000000000	     90.21277344574988887871	     -2.35059805166449198310	      0.62307244465227351604	     69.19020269642642517738	      1.20759684717489967909	      9.95055177237215104924	      0.00000000000000000000	      0.00000000000000000000	    -43.19558726690958394556	      7.06232878736086444604	      0.11258386863689309743	     60.61737913120207821294	    -16.75251309813026168172	     29.82028394123873482613	     19.26184139997497624108	     89.05178221084182155209	      0.00000000000000000000	      0.00000000000000000000	     65.24651171677824379458	    -11.67531673062590336087	     58.50260353549222713809	     20.21553085991908105257	     85.83011431512140632094	      0.00000000000000000000	      0.00000000000000000000
      8.36999999999999921840	     33.11495887938361448732	      1.32408462962295936372	   -175.24476902713942649825	      0.39029608764578910263	      0.77794766071331911128	     -0.55927023812396903235	     90.12404714051075416137	    -17.75019368710124467725	     -3.42845663905595188226	     69.14775614415029281190	      1.20685601508156126194	     12.34688377220405186563	      0.00000000000000000000	      0.00000000000000000000	     90.25330296435525667675	     -2.56219105365569177479	      0.80835069785670243814	     69.20172356638184396616	      1.20779792428831589390	      9.90286750877342925037	      0.00000000000000000000	      0.00000000000000000000	    -43.08383153144090016440	      7.23276316786633000078	      0.36250862427637275953	     60.49012354009037295555	    -16.97467796071013168557	     30.42970102471229054686	     19.56441280526090764624	     89.06314410146119087131	      0.00000000000000000000	      0.00000000000000000000	     65.06089808982602562537	    -11.63238418596805523464	     58.03284336022493761220	     20.23195387679548673532	     85.58545055464783501975	      0.00000000000000000000	      0.00000000000000000000
      8.37500000000000000000	     33.02231290553572762292	      1.21890957766117069561	   -175.14920424296715850687	      0.39004501773424610223	      0.77865567600945817528	     -0.55898233179403178372	     89.99539595972792938028	    -17.89926292161293375216	     -3.37754332081890806805	     69.10444536202273013714	      1.20610009933182160680	     12.36287262214388604775	      0.00000000000000000000	      0.00000000000000000000	     90.04504684169293682316	     -2.41806250255193777576	      0.73445401342300820069	     69.07593379447882853128	      1.20560247860327574010	      9.86974355524252366934	      0.00000000000000000000	      0.00000000000000000000	    -43.05298849387074966444	      7.20896911069444357167	      0.15114321428368593381	     60.47797106587390914001	    -16.69388356269776352292	     29.95596539381324419082	     19.23625062858762291285	     89.05295529448828517616	      0.00000000000000000000	      0.00000000000000000000	     65.08654945698134497434	    -11.88725723354881580462	     58.97498723406972231942	     20.43315010466602998918	     85.70985455596900237651	      0.00000000000000000000	      0.00000000000000000000
      8.38000000000000078160	     32.94396985152011581022	      1.26745198310519580076	   -175.16379423943837423394	      0.38984988648952506596	      0.77937501405662623633	     -0.55885737817471603517	     89.80403337106599792605	    -17.89107284244506246296	     -3.47598260770664690966	     68.99241609405255815091	      1.20414481974714293600	     12.30433483457132837202	      0.00000000000000000000	      0.00000000000000000000	     89.90807681362356618138	     -2.43431199926344321582	      0.77618957428521151432	     69.00731589196993809310	      1.20440487027868314840	      9.79169628641450806583	      0.00000000000000000000	      0.00000000000000000000	    -43.02122363271258365103	      7.25808676521308893115	      0.17685387619520381852	     60.41182000483177461092	    -16.71701830137948618926	     30.09200740953403041544	     19.27590269057904137640	     89.04928501653365913171	      0.00000000000000000000	      0.00000000000000000000	     64.98113599931998862758	    -11.84411876197462198945	     58.79916145120235171362	     20.38417179520813604654	     85.70710891895049599043	      0.00000000000000000000	      0.00000000000000000000
      8.38499999999999978684	     32.93795752367908846736	      1.36507888194790560910	   -175.28500080461714105695	      0.38975978757443680012	      0.77989560116321310357	     -0.55908800630747546023	     89.69575335219820999555	    -17.72449928891409598464	     -3.58256466199434342457	     68.86706800361106672881	      1.20195708285785141101	     12.07790853200336655959	      0.00000000000000000000	      0.00000000000000000000	     89.85370573964667073597	     -2.56351639231485828319	      0.89348791686652706545	     68.92698968423894712032	      1.20300291347813637088	      9.85855448436178605220	      0.00000000000000000000	      0.00000000000000000000	    -42.90386707493878759578	      7.26519862044714681559	      0.32636853880072685952	     60.28840739840017448614	    -16.87420196181157905357	     30.57627734088418236524	     19.45741739027244676663	     89.05046592575067165853	      0.00000000000000000000	      0.00000000000000000000	     64.65490897069500420002	    -11.65505590719690509616	     57.52359562631528433485	     20.26381122258364442246	     85.42894562233604460744	      0.00000000000000000000	      0.00000000000000000000
      8.39000000000000056843	     32.80271006194013239110	      1.30911923986918976581	   -175.12468384743914384671	      0.38941243692271154675	      0.78085851608419820646	     -0.55868077315780806380	     89.45541622452157071166	    -17.91975136692353842705	     -3.58751958317873942406	     68.78750671693819640495	      1.20056847644828668109	     12.28124415874246722069	      0.00000000000000000000	      0.00000000000000000000	     89.59261614968120568392	     -2.37779817946487392888	      0.84564852826608016834	     68.79067057997457368401	      1.20062369627535359129	      9.79977064550137733079	      0.00000000000000000000	      0.00000000000000000000	    -42.93054463387910146821	      7.32280939484386195204	      0.13134171116034798477	     60.23442831448588918875	    -16.59607233527303904452	     29.72388540786968391672	     19.18474153899472156581	     89.05471383420035635936	      0.00000000000000000000	      0.00000000000000000000	     64.71102433431202882730	    -11.82779372675828888362	     58.32780131427572456460	     20.37159926658836894831	     85.91524055563081674336	      0.00000000000000000000	      0.00000000000000000000
      8.39499999999999957367	     32.74847947930880565082	      1.33344659947970844982	   -175.14034993290059105675	      0.38927383162468703892	      0.78159011763712382681	     -0.55869398832487016104	     89.29512826681974502208	    -17.87866142731928320586	     -3.62452773724123966659	     68.66655161868061441055	      1.19845741173661868295	     12.23875292902842737419	      0.00000000000000000000	      0.00000000000000000000	     89.45607874305692064354	     -2.40314981074142286488	      0.86702239238596023885	     68.67855900298471283349	      1.19866698012727734834	      9.75163177575557504895	      0.00000000000000000000	      0.00000000000000000000	    -42.87157811590284950398	      7.32929410376993395460	      0.14671546994835360511	     60.13578455747069995141	    -16.59257151694232135242	     29.69757215662482607854	     19.21382738618815366749	     89.05311269328457512984	      0.00000000000000000000	      0.00000000000000000000	     64.63354357912291447974	    -11.83431388999555800012	     58.34523047857211963674	     20.37961793445420610738	     85.90009861649799915995	      0.00000000000000000000	      0.00000000000000000000
      8.40000000000000035527	     32.88366069921836043477	      1.38821947382781929470	   -175.45650016829927153594	      0.38948375309265137467	      0.78179447609405872122	     -0.55955514038854314851	     89.35428571387718932328	    -17.41359492033575762093	     -3.56047819408336874147	     68.48230979945894603134	      1.19524178537133640710	     12.15095194097395925326	      0.00000000000000000000	      0.00000000000000000000	     89.59009730356054035383	     -2.79652610256767175656	      0.85585278646104390177	     68.66353951317081794059	      1.19840484057805518603	      9.65664131775582745831	      0.00000000000000000000	      0.00000000000000000000	    -42.60685618905284144375	      7.12924860569812057776	      0.39065549724634923701	     59.97480283900200959124	    -16.63583464633761010987	     29.84106206467169997154	     19.29474592967099155771	     89.05341405155638767610	      0.00000000000000000000	      0.00000000000000000000	     64.42924955822819299556	    -11.81056339880169225864	     57.92575953882403183570	     20.39565640538787505420	     85.50102812898138893161	      0.00000000000000000000	      0.00000000000000000000
      8.40499999999999936051	     32.65704707918442295522	      1.26567543810121874159	   -175.18805554569894411543	      0.38906149416686464093	      0.78317396534672190089	     -0.55876410251885144653	     89.02879609273225014476	    -17.79872840747190920752	     -3.58606733468166272161	     68.41064124920669087260	      1.19399093319930349466	     12.13859179342278515890	      0.00000000000000000000	      0.00000000000000000000	     89.13351116795975315199	     -2.41262522485815944506	      0.83322361949126011460	     68.38679383600097594353	      1.19357471732078002091	      9.72201528913346812999	      0.00000000000000000000	      0.00000000000000000000	    -42.75076462695270151926	      7.22573570990975788675	      0.13141516316188259217	     59.90584336314329050310	    -16.58745875714800277478	     29.48142965685357808070	     19.27066915046156125868	     89.05602668094378771002	      0.00000000000000000000	      0.00000000000000000000	     64.53093160066786992957	    -11.83184583191684779990	     58.54799994174322819163	     20.36100321221538322902	     85.93180106944683416259	      0.00000000000000000000	      0.00000000000000000000
